<?xml version="1.0" encoding="UTF-8" standalone="no"?>
<!DOCTYPE svg PUBLIC "-//W3C//DTD SVG 1.1//EN"
 "http://www.w3.org/Graphics/SVG/1.1/DTD/svg11.dtd">
<!-- Generated by graphviz version 2.36.0 (20140111.2315)
 -->
<!-- Title: G Pages: 1 -->
<svg width="1257pt" height="266pt"
 viewBox="0.00 0.00 1257.20 265.91" xmlns="http://www.w3.org/2000/svg" xmlns:xlink="http://www.w3.org/1999/xlink">
<g id="graph0" class="graph" transform="scale(1 1) rotate(0) translate(21.6 244.308)">
<title>G</title>
<polygon fill="#111111" stroke="none" points="-21.6,21.6 -21.6,-244.308 1235.6,-244.308 1235.6,21.6 -21.6,21.6"/>
<!-- index.js -->
<g id="node1" class="node"><title>index.js</title>
<path fill="none" stroke="#c6c5fe" d="M56.3333,-122.5C56.3333,-122.5 7.66667,-122.5 7.66667,-122.5 3.83333,-122.5 0,-118.667 0,-114.833 0,-114.833 0,-107.167 0,-107.167 0,-103.333 3.83333,-99.5 7.66667,-99.5 7.66667,-99.5 56.3333,-99.5 56.3333,-99.5 60.1667,-99.5 64,-103.333 64,-107.167 64,-107.167 64,-114.833 64,-114.833 64,-118.667 60.1667,-122.5 56.3333,-122.5"/>
<text text-anchor="middle" x="32" y="-107.3" font-family="Arial" font-size="14.00" fill="#c6c5fe">index.js</text>
</g>
<!-- loaders/LoaderAudio.js -->
<g id="node2" class="node"><title>loaders/LoaderAudio.js</title>
<path fill="none" stroke="#c6c5fe" d="M252.333,-102.5C252.333,-102.5 107.667,-102.5 107.667,-102.5 103.833,-102.5 100,-98.6667 100,-94.8333 100,-94.8333 100,-87.1667 100,-87.1667 100,-83.3333 103.833,-79.5 107.667,-79.5 107.667,-79.5 252.333,-79.5 252.333,-79.5 256.167,-79.5 260,-83.3333 260,-87.1667 260,-87.1667 260,-94.8333 260,-94.8333 260,-98.6667 256.167,-102.5 252.333,-102.5"/>
<text text-anchor="middle" x="180" y="-87.3" font-family="Arial" font-size="14.00" fill="#c6c5fe">loaders/LoaderAudio.js</text>
</g>
<!-- index.js&#45;&gt;loaders/LoaderAudio.js -->
<g id="edge1" class="edge"><title>index.js&#45;&gt;loaders/LoaderAudio.js</title>
<path fill="none" stroke="#757575" d="M64.3207,-106.709C72.0737,-105.647 80.77,-104.456 89.8154,-103.217"/>
<polygon fill="#757575" stroke="#757575" points="90.3071,-106.682 99.7395,-101.858 89.357,-99.7473 90.3071,-106.682"/>
</g>
<!-- loaders/LoaderImage.js -->
<g id="node3" class="node"><title>loaders/LoaderImage.js</title>
<path fill="none" stroke="#c6c5fe" d="M451.833,-62.5C451.833,-62.5 304.167,-62.5 304.167,-62.5 300.333,-62.5 296.5,-58.6667 296.5,-54.8333 296.5,-54.8333 296.5,-47.1667 296.5,-47.1667 296.5,-43.3333 300.333,-39.5 304.167,-39.5 304.167,-39.5 451.833,-39.5 451.833,-39.5 455.667,-39.5 459.5,-43.3333 459.5,-47.1667 459.5,-47.1667 459.5,-54.8333 459.5,-54.8333 459.5,-58.6667 455.667,-62.5 451.833,-62.5"/>
<text text-anchor="middle" x="378" y="-47.3" font-family="Arial" font-size="14.00" fill="#c6c5fe">loaders/LoaderImage.js</text>
</g>
<!-- index.js&#45;&gt;loaders/LoaderImage.js -->
<g id="edge2" class="edge"><title>index.js&#45;&gt;loaders/LoaderImage.js</title>
<path fill="none" stroke="#757575" d="M46.9046,-99.7001C59.8107,-89.9234 79.9925,-76.3829 100,-70 160.093,-50.8289 231.126,-46.2923 286.215,-46.4382"/>
<polygon fill="#757575" stroke="#757575" points="286.282,-49.9387 296.309,-46.5175 286.337,-42.9389 286.282,-49.9387"/>
</g>
<!-- loaders/LoaderJSON.js -->
<g id="node4" class="node"><title>loaders/LoaderJSON.js</title>
<path fill="none" stroke="#c6c5fe" d="M450.833,-222.5C450.833,-222.5 305.167,-222.5 305.167,-222.5 301.333,-222.5 297.5,-218.667 297.5,-214.833 297.5,-214.833 297.5,-207.167 297.5,-207.167 297.5,-203.333 301.333,-199.5 305.167,-199.5 305.167,-199.5 450.833,-199.5 450.833,-199.5 454.667,-199.5 458.5,-203.333 458.5,-207.167 458.5,-207.167 458.5,-214.833 458.5,-214.833 458.5,-218.667 454.667,-222.5 450.833,-222.5"/>
<text text-anchor="middle" x="378" y="-207.3" font-family="Arial" font-size="14.00" fill="#c6c5fe">loaders/LoaderJSON.js</text>
</g>
<!-- index.js&#45;&gt;loaders/LoaderJSON.js -->
<g id="edge3" class="edge"><title>index.js&#45;&gt;loaders/LoaderJSON.js</title>
<path fill="none" stroke="#757575" d="M38.7168,-122.525C48.4597,-140.755 70.162,-175.737 100,-191 157.501,-220.414 230.671,-224.522 287.367,-221.753"/>
<polygon fill="#757575" stroke="#757575" points="287.608,-225.245 297.394,-221.184 287.212,-218.256 287.608,-225.245"/>
</g>
<!-- loaders/LoaderText.js -->
<g id="node5" class="node"><title>loaders/LoaderText.js</title>
<path fill="none" stroke="#c6c5fe" d="M247.833,-182.5C247.833,-182.5 112.167,-182.5 112.167,-182.5 108.333,-182.5 104.5,-178.667 104.5,-174.833 104.5,-174.833 104.5,-167.167 104.5,-167.167 104.5,-163.333 108.333,-159.5 112.167,-159.5 112.167,-159.5 247.833,-159.5 247.833,-159.5 251.667,-159.5 255.5,-163.333 255.5,-167.167 255.5,-167.167 255.5,-174.833 255.5,-174.833 255.5,-178.667 251.667,-182.5 247.833,-182.5"/>
<text text-anchor="middle" x="180" y="-167.3" font-family="Arial" font-size="14.00" fill="#c6c5fe">loaders/LoaderText.js</text>
</g>
<!-- index.js&#45;&gt;loaders/LoaderText.js -->
<g id="edge4" class="edge"><title>index.js&#45;&gt;loaders/LoaderText.js</title>
<path fill="none" stroke="#757575" d="M53.4429,-122.395C66.5209,-129.427 83.9793,-138.344 100,-145 109.903,-149.114 120.708,-153.03 131.059,-156.515"/>
<polygon fill="#757575" stroke="#757575" points="130.207,-159.919 140.8,-159.718 132.394,-153.269 130.207,-159.919"/>
</g>
<!-- loaders/LoaderVideo.js -->
<g id="node6" class="node"><title>loaders/LoaderVideo.js</title>
<path fill="none" stroke="#c6c5fe" d="M450.333,-142.5C450.333,-142.5 305.667,-142.5 305.667,-142.5 301.833,-142.5 298,-138.667 298,-134.833 298,-134.833 298,-127.167 298,-127.167 298,-123.333 301.833,-119.5 305.667,-119.5 305.667,-119.5 450.333,-119.5 450.333,-119.5 454.167,-119.5 458,-123.333 458,-127.167 458,-127.167 458,-134.833 458,-134.833 458,-138.667 454.167,-142.5 450.333,-142.5"/>
<text text-anchor="middle" x="378" y="-127.3" font-family="Arial" font-size="14.00" fill="#c6c5fe">loaders/LoaderVideo.js</text>
</g>
<!-- index.js&#45;&gt;loaders/LoaderVideo.js -->
<g id="edge5" class="edge"><title>index.js&#45;&gt;loaders/LoaderVideo.js</title>
<path fill="none" stroke="#757575" d="M64.1344,-112.81C114.128,-115.717 214.144,-121.532 287.691,-125.808"/>
<polygon fill="#757575" stroke="#757575" points="287.698,-129.314 297.885,-126.4 288.105,-122.326 287.698,-129.314"/>
</g>
<!-- util/getExtension.js -->
<g id="node7" class="node"><title>util/getExtension.js</title>
<path fill="none" stroke="#c6c5fe" d="M1041.83,-22.5C1041.83,-22.5 924.167,-22.5 924.167,-22.5 920.333,-22.5 916.5,-18.6667 916.5,-14.8333 916.5,-14.8333 916.5,-7.16667 916.5,-7.16667 916.5,-3.33333 920.333,0.5 924.167,0.5 924.167,0.5 1041.83,0.5 1041.83,0.5 1045.67,0.5 1049.5,-3.33333 1049.5,-7.16667 1049.5,-7.16667 1049.5,-14.8333 1049.5,-14.8333 1049.5,-18.6667 1045.67,-22.5 1041.83,-22.5"/>
<text text-anchor="middle" x="983" y="-7.3" font-family="Arial" font-size="14.00" fill="#c6c5fe">util/getExtension.js</text>
</g>
<!-- index.js&#45;&gt;util/getExtension.js -->
<g id="edge6" class="edge"><title>index.js&#45;&gt;util/getExtension.js</title>
<path fill="none" stroke="#757575" d="M40.4855,-99.5112C51.4517,-83.7578 73.4868,-55.9354 100,-43 211.381,11.3411 253.07,-11 377,-11 377,-11 377,-11 575,-11 690.533,-11 824.515,-11 906.248,-11"/>
<polygon fill="#757575" stroke="#757575" points="906.443,-14.5001 916.443,-11 906.443,-7.5001 906.443,-14.5001"/>
</g>
<!-- loaders/LoaderAudio.js&#45;&gt;loaders/LoaderVideo.js -->
<g id="edge9" class="edge"><title>loaders/LoaderAudio.js&#45;&gt;loaders/LoaderVideo.js</title>
<path fill="none" stroke="#757575" d="M236.38,-102.302C259.86,-107.094 287.395,-112.713 311.845,-117.703"/>
<polygon fill="#757575" stroke="#757575" points="311.259,-121.156 321.757,-119.726 312.659,-114.297 311.259,-121.156"/>
</g>
<!-- loaders/LoaderBase.js -->
<g id="node10" class="node"><title>loaders/LoaderBase.js</title>
<path fill="none" stroke="#c6c5fe" d="M644.333,-141.5C644.333,-141.5 503.667,-141.5 503.667,-141.5 499.833,-141.5 496,-137.667 496,-133.833 496,-133.833 496,-126.167 496,-126.167 496,-122.333 499.833,-118.5 503.667,-118.5 503.667,-118.5 644.333,-118.5 644.333,-118.5 648.167,-118.5 652,-122.333 652,-126.167 652,-126.167 652,-133.833 652,-133.833 652,-137.667 648.167,-141.5 644.333,-141.5"/>
<text text-anchor="middle" x="574" y="-126.3" font-family="Arial" font-size="14.00" fill="#c6c5fe">loaders/LoaderBase.js</text>
</g>
<!-- loaders/LoaderAudio.js&#45;&gt;loaders/LoaderBase.js -->
<g id="edge8" class="edge"><title>loaders/LoaderAudio.js&#45;&gt;loaders/LoaderBase.js</title>
<path fill="none" stroke="#757575" d="M260.285,-94.1345C316.242,-96.8994 392.894,-101.8 460,-110 474.943,-111.826 490.91,-114.316 505.994,-116.92"/>
<polygon fill="#757575" stroke="#757575" points="505.816,-120.443 516.272,-118.734 507.033,-113.549 505.816,-120.443"/>
</g>
<!-- loaders/FileMeta.js -->
<g id="node8" class="node"><title>loaders/FileMeta.js</title>
<path fill="none" stroke="#c6c5fe" d="M834.333,-103.5C834.333,-103.5 715.667,-103.5 715.667,-103.5 711.833,-103.5 708,-99.6667 708,-95.8333 708,-95.8333 708,-88.1667 708,-88.1667 708,-84.3333 711.833,-80.5 715.667,-80.5 715.667,-80.5 834.333,-80.5 834.333,-80.5 838.167,-80.5 842,-84.3333 842,-88.1667 842,-88.1667 842,-95.8333 842,-95.8333 842,-99.6667 838.167,-103.5 834.333,-103.5"/>
<text text-anchor="middle" x="775" y="-88.3" font-family="Arial" font-size="14.00" fill="#c6c5fe">loaders/FileMeta.js</text>
</g>
<!-- loaders/LoaderImage.js&#45;&gt;loaders/FileMeta.js -->
<g id="edge13" class="edge"><title>loaders/LoaderImage.js&#45;&gt;loaders/FileMeta.js</title>
<path fill="none" stroke="#757575" d="M459.535,-60.8754C471.747,-62.3038 484.204,-63.7216 496,-65 564.189,-72.3901 641.895,-79.8565 697.784,-85.0587"/>
<polygon fill="#757575" stroke="#757575" points="697.678,-88.5638 707.958,-86.0032 698.325,-81.5938 697.678,-88.5638"/>
</g>
<!-- loaders/LoaderImage.js&#45;&gt;loaders/LoaderBase.js -->
<g id="edge14" class="edge"><title>loaders/LoaderImage.js&#45;&gt;loaders/LoaderBase.js</title>
<path fill="none" stroke="#757575" d="M423.37,-62.3189C435.574,-66.2075 448.585,-71.1002 460,-77 477.767,-86.1832 478.303,-94.6834 496,-104 504.16,-108.296 513.173,-112.093 522.071,-115.366"/>
<polygon fill="#757575" stroke="#757575" points="521.04,-118.713 531.635,-118.71 523.351,-112.106 521.04,-118.713"/>
</g>
<!-- util/getMimeFromURL.js -->
<g id="node11" class="node"><title>util/getMimeFromURL.js</title>
<path fill="none" stroke="#c6c5fe" d="M850.833,-62.5C850.833,-62.5 699.167,-62.5 699.167,-62.5 695.333,-62.5 691.5,-58.6667 691.5,-54.8333 691.5,-54.8333 691.5,-47.1667 691.5,-47.1667 691.5,-43.3333 695.333,-39.5 699.167,-39.5 699.167,-39.5 850.833,-39.5 850.833,-39.5 854.667,-39.5 858.5,-43.3333 858.5,-47.1667 858.5,-47.1667 858.5,-54.8333 858.5,-54.8333 858.5,-58.6667 854.667,-62.5 850.833,-62.5"/>
<text text-anchor="middle" x="775" y="-47.3" font-family="Arial" font-size="14.00" fill="#c6c5fe">util/getMimeFromURL.js</text>
</g>
<!-- loaders/LoaderImage.js&#45;&gt;util/getMimeFromURL.js -->
<g id="edge15" class="edge"><title>loaders/LoaderImage.js&#45;&gt;util/getMimeFromURL.js</title>
<path fill="none" stroke="#757575" d="M459.887,-51C524.079,-51 613.876,-51 681.026,-51"/>
<polygon fill="#757575" stroke="#757575" points="681.182,-54.5001 691.182,-51 681.182,-47.5001 681.182,-54.5001"/>
</g>
<!-- loaders/LoaderJSON.js&#45;&gt;loaders/LoaderBase.js -->
<g id="edge16" class="edge"><title>loaders/LoaderJSON.js&#45;&gt;loaders/LoaderBase.js</title>
<path fill="none" stroke="#757575" d="M418.128,-199.676C431.55,-195.467 446.568,-190.393 460,-185 488.878,-173.406 520.653,-157.659 543.133,-145.985"/>
<polygon fill="#757575" stroke="#757575" points="544.929,-148.996 552.163,-141.256 541.681,-142.795 544.929,-148.996"/>
</g>
<!-- loaders/LoaderText.js&#45;&gt;loaders/LoaderBase.js -->
<g id="edge17" class="edge"><title>loaders/LoaderText.js&#45;&gt;loaders/LoaderBase.js</title>
<path fill="none" stroke="#757575" d="M255.535,-167.932C311.862,-165.063 391.001,-159.856 460,-151 475.911,-148.958 492.972,-146.127 508.892,-143.205"/>
<polygon fill="#757575" stroke="#757575" points="509.981,-146.562 519.165,-141.279 508.691,-139.682 509.981,-146.562"/>
</g>
<!-- loaders/LoaderVideo.js&#45;&gt;loaders/LoaderBase.js -->
<g id="edge18" class="edge"><title>loaders/LoaderVideo.js&#45;&gt;loaders/LoaderBase.js</title>
<path fill="none" stroke="#757575" d="M458.187,-130.592C467.246,-130.545 476.519,-130.497 485.676,-130.45"/>
<polygon fill="#757575" stroke="#757575" points="485.966,-133.949 495.948,-130.397 485.93,-126.949 485.966,-133.949"/>
</g>
<!-- util/isBase64.js -->
<g id="node13" class="node"><title>util/isBase64.js</title>
<path fill="none" stroke="#cfffac" d="M1206.33,-42.5C1206.33,-42.5 1111.67,-42.5 1111.67,-42.5 1107.83,-42.5 1104,-38.6667 1104,-34.8333 1104,-34.8333 1104,-27.1667 1104,-27.1667 1104,-23.3333 1107.83,-19.5 1111.67,-19.5 1111.67,-19.5 1206.33,-19.5 1206.33,-19.5 1210.17,-19.5 1214,-23.3333 1214,-27.1667 1214,-27.1667 1214,-34.8333 1214,-34.8333 1214,-38.6667 1210.17,-42.5 1206.33,-42.5"/>
<text text-anchor="middle" x="1159" y="-27.3" font-family="Arial" font-size="14.00" fill="#cfffac">util/isBase64.js</text>
</g>
<!-- util/getExtension.js&#45;&gt;util/isBase64.js -->
<g id="edge19" class="edge"><title>util/getExtension.js&#45;&gt;util/isBase64.js</title>
<path fill="none" stroke="#757575" d="M1049.78,-18.5611C1064.11,-20.2079 1079.25,-21.9486 1093.53,-23.5894"/>
<polygon fill="#757575" stroke="#757575" points="1093.41,-27.0989 1103.74,-24.7638 1094.21,-20.1447 1093.41,-27.0989"/>
</g>
<!-- util/parseHTTPHeader.js -->
<g id="node9" class="node"><title>util/parseHTTPHeader.js</title>
<path fill="none" stroke="#cfffac" d="M1060.33,-103.5C1060.33,-103.5 905.667,-103.5 905.667,-103.5 901.833,-103.5 898,-99.6667 898,-95.8333 898,-95.8333 898,-88.1667 898,-88.1667 898,-84.3333 901.833,-80.5 905.667,-80.5 905.667,-80.5 1060.33,-80.5 1060.33,-80.5 1064.17,-80.5 1068,-84.3333 1068,-88.1667 1068,-88.1667 1068,-95.8333 1068,-95.8333 1068,-99.6667 1064.17,-103.5 1060.33,-103.5"/>
<text text-anchor="middle" x="983" y="-88.3" font-family="Arial" font-size="14.00" fill="#cfffac">util/parseHTTPHeader.js</text>
</g>
<!-- loaders/FileMeta.js&#45;&gt;util/parseHTTPHeader.js -->
<g id="edge7" class="edge"><title>loaders/FileMeta.js&#45;&gt;util/parseHTTPHeader.js</title>
<path fill="none" stroke="#757575" d="M842.03,-92C856.607,-92 872.323,-92 887.774,-92"/>
<polygon fill="#757575" stroke="#757575" points="887.875,-95.5001 897.875,-92 887.875,-88.5001 887.875,-95.5001"/>
</g>
<!-- loaders/LoaderBase.js&#45;&gt;loaders/FileMeta.js -->
<g id="edge10" class="edge"><title>loaders/LoaderBase.js&#45;&gt;loaders/FileMeta.js</title>
<path fill="none" stroke="#757575" d="M634.168,-118.702C656.423,-114.452 681.92,-109.583 704.994,-105.177"/>
<polygon fill="#757575" stroke="#757575" points="705.894,-108.568 715.06,-103.255 704.581,-101.693 705.894,-108.568"/>
</g>
<!-- loaders/LoaderBase.js&#45;&gt;util/getMimeFromURL.js -->
<g id="edge11" class="edge"><title>loaders/LoaderBase.js&#45;&gt;util/getMimeFromURL.js</title>
<path fill="none" stroke="#757575" d="M593.13,-118.692C614.916,-105.545 652.928,-83.995 688,-71 693.848,-68.833 700.01,-66.8496 706.238,-65.0462"/>
<polygon fill="#757575" stroke="#757575" points="707.324,-68.3779 716.043,-62.36 705.474,-61.6267 707.324,-68.3779"/>
</g>
<!-- util/stringToArrayBuffer.js -->
<g id="node12" class="node"><title>util/stringToArrayBuffer.js</title>
<path fill="none" stroke="#cfffac" d="M854.333,-144.5C854.333,-144.5 695.667,-144.5 695.667,-144.5 691.833,-144.5 688,-140.667 688,-136.833 688,-136.833 688,-129.167 688,-129.167 688,-125.333 691.833,-121.5 695.667,-121.5 695.667,-121.5 854.333,-121.5 854.333,-121.5 858.167,-121.5 862,-125.333 862,-129.167 862,-129.167 862,-136.833 862,-136.833 862,-140.667 858.167,-144.5 854.333,-144.5"/>
<text text-anchor="middle" x="775" y="-129.3" font-family="Arial" font-size="14.00" fill="#cfffac">util/stringToArrayBuffer.js</text>
</g>
<!-- loaders/LoaderBase.js&#45;&gt;util/stringToArrayBuffer.js -->
<g id="edge12" class="edge"><title>loaders/LoaderBase.js&#45;&gt;util/stringToArrayBuffer.js</title>
<path fill="none" stroke="#757575" d="M652.223,-131.164C660.626,-131.291 669.251,-131.421 677.844,-131.55"/>
<polygon fill="#757575" stroke="#757575" points="677.848,-135.051 687.9,-131.702 677.954,-128.052 677.848,-135.051"/>
</g>
<!-- util/getMimeFromURL.js&#45;&gt;util/getExtension.js -->
<g id="edge20" class="edge"><title>util/getMimeFromURL.js&#45;&gt;util/getExtension.js</title>
<path fill="none" stroke="#757575" d="M834.205,-39.698C858.994,-34.8847 888.081,-29.2368 913.863,-24.2304"/>
<polygon fill="#757575" stroke="#757575" points="914.789,-27.6161 923.938,-22.2741 913.455,-20.7445 914.789,-27.6161"/>
</g>
<!-- util/getMimeFromURL.js&#45;&gt;util/isBase64.js -->
<g id="edge21" class="edge"><title>util/getMimeFromURL.js&#45;&gt;util/isBase64.js</title>
<path fill="none" stroke="#757575" d="M858.888,-46.6603C929.394,-42.9689 1029.21,-37.7431 1093.77,-34.3626"/>
<polygon fill="#757575" stroke="#757575" points="1094.02,-37.8546 1103.82,-33.8364 1093.66,-30.8641 1094.02,-37.8546"/>
</g>
</g>
</svg>
