<?xml version="1.0" encoding="UTF-8" standalone="no"?>
<!DOCTYPE svg PUBLIC "-//W3C//DTD SVG 1.1//EN"
 "http://www.w3.org/Graphics/SVG/1.1/DTD/svg11.dtd">
<!-- Generated by graphviz version 2.40.1 (20161225.0304)
 -->
<!-- Title: %0 Pages: 1 -->
<svg width="217pt" height="91pt"
 viewBox="0.00 0.00 217.39 91.40" xmlns="http://www.w3.org/2000/svg" xmlns:xlink="http://www.w3.org/1999/xlink">
<g id="graph0" class="graph" transform="scale(1 1) rotate(0) translate(4 87.4)">
<title>%0</title>
<polygon fill="#ffffff" stroke="transparent" points="-4,4 -4,-87.4 213.3865,-87.4 213.3865,4 -4,4"/>
<text text-anchor="middle" x="104.6933" y="-65" font-family="Roboto Condensed, sans-serif" font-size="16.00" fill="#000000">preloader</text>
<!-- preloader@4.0.3 -->
<g id="node1" class="node">
<title>preloader@4.0.3</title>
<path fill="none" stroke="#000000" d="M73.0223,-37.3011C73.0223,-37.3011 6.637,-37.3011 6.637,-37.3011 3.4033,-37.3011 .1696,-34.0674 .1696,-30.8337 .1696,-30.8337 .1696,-24.3663 .1696,-24.3663 .1696,-21.1326 3.4033,-17.8989 6.637,-17.8989 6.637,-17.8989 73.0223,-17.8989 73.0223,-17.8989 76.256,-17.8989 79.4897,-21.1326 79.4897,-24.3663 79.4897,-24.3663 79.4897,-30.8337 79.4897,-30.8337 79.4897,-34.0674 76.256,-37.3011 73.0223,-37.3011"/>
<text text-anchor="middle" x="39.8297" y="-24.3" font-family="Roboto Condensed, sans-serif" font-size="11.00" fill="#000000">preloader@4.0.3</text>
</g>
<!-- base64mime@0.0.3 -->
<g id="node2" class="node">
<title>base64mime@0.0.3</title>
<path fill="none" stroke="#000000" d="M202.7831,-56.3011C202.7831,-56.3011 122.2627,-56.3011 122.2627,-56.3011 119.029,-56.3011 115.7953,-53.0674 115.7953,-49.8337 115.7953,-49.8337 115.7953,-43.3663 115.7953,-43.3663 115.7953,-40.1326 119.029,-36.8989 122.2627,-36.8989 122.2627,-36.8989 202.7831,-36.8989 202.7831,-36.8989 206.0168,-36.8989 209.2505,-40.1326 209.2505,-43.3663 209.2505,-43.3663 209.2505,-49.8337 209.2505,-49.8337 209.2505,-53.0674 206.0168,-56.3011 202.7831,-56.3011"/>
<text text-anchor="middle" x="162.5229" y="-43.3" font-family="Roboto Condensed, sans-serif" font-size="11.00" fill="#000000">base64mime@0.0.3</text>
</g>
<!-- preloader@4.0.3&#45;&gt;base64mime@0.0.3 -->
<g id="edge1" class="edge">
<title>preloader@4.0.3&#45;&gt;base64mime@0.0.3</title>
<path fill="none" stroke="#000000" d="M79.6646,-33.7688C87.9126,-35.046 96.7545,-36.4153 105.4798,-37.7664"/>
<polygon fill="#000000" stroke="#000000" points="105.2085,-41.2661 115.6264,-39.3377 106.2798,-34.3485 105.2085,-41.2661"/>
</g>
<!-- js&#45;oop@1.0.0 -->
<g id="node3" class="node">
<title>js&#45;oop@1.0.0</title>
<path fill="none" stroke="#000000" d="M188.6832,-19.3011C188.6832,-19.3011 136.3626,-19.3011 136.3626,-19.3011 133.1289,-19.3011 129.8952,-16.0674 129.8952,-12.8337 129.8952,-12.8337 129.8952,-6.3663 129.8952,-6.3663 129.8952,-3.1326 133.1289,.1011 136.3626,.1011 136.3626,.1011 188.6832,.1011 188.6832,.1011 191.9169,.1011 195.1506,-3.1326 195.1506,-6.3663 195.1506,-6.3663 195.1506,-12.8337 195.1506,-12.8337 195.1506,-16.0674 191.9169,-19.3011 188.6832,-19.3011"/>
<text text-anchor="middle" x="162.5229" y="-6.3" font-family="Roboto Condensed, sans-serif" font-size="11.00" fill="#000000">js&#45;oop@1.0.0</text>
</g>
<!-- preloader@4.0.3&#45;&gt;js&#45;oop@1.0.0 -->
<g id="edge2" class="edge">
<title>preloader@4.0.3&#45;&gt;js&#45;oop@1.0.0</title>
<path fill="none" stroke="#000000" d="M79.6646,-21.7559C92.4739,-19.8767 106.7158,-17.7873 119.7284,-15.8783"/>
<polygon fill="#000000" stroke="#000000" points="120.4638,-19.3079 129.8498,-14.3934 119.4477,-12.3821 120.4638,-19.3079"/>
</g>
</g>
</svg>
